{"title":"The.Gallows.2015.HC.WEBRiP.XviD-VAiN","uid":12232861,"size":1010932715,"categoryP":"video","categoryS":"movies","magnet":"?xt=urn:btih:3954676c59da8832849722e982f35b5f42e49341&amp;dn=The.Gallows.2015.HC.WEBRiP.XviD-VAiN&amp;tr=udp%3A%2F%2Ftracker.openbittorrent.com%3A80&amp;tr=udp%3A%2F%2Fopen.demonii.com%3A1337&amp;tr=udp%3A%2F%2Ftracker.coppersurfer.tk%3A6969&amp;tr=udp%3A%2F%2Fexodus.desync.com%3A6969","seeders":4,"leechers":3,"uploader":"TvTeam","files":4,"time":1439600815,"description":"------------------------------------------------------------------------\n\n &lt;a href=&quot; https://www.torrenting.com&quot; rel=&quot;nofollow&quot; target=&quot;_NEW&quot;&gt; https://www.torrenting.com&lt;/a&gt;\n\nSign up is OPEN - for time being. Come and have fun\n\n.......................................................................................................................[img]http://i.imgur.com/FJi0aRt.png[/img] \n\n[b]P R E S E N T S . . . .[/b] \n\nThe.Gallows.2015.HC.WEBRiP.XviD-VAiN\n\niMDB........: http://www.imdb.com/title/tt2309260/\n\nPLOT........:20 years after a horrific accident during a small town school play, students at the school resurrect the failed show in a misguided attempt to honor the anniversary of the tragedy - but soon discover that some things are better left alone..\n\nT E C H N i C A L . i N F O . . .\n\nBasic Information\nFormat                      : AVI\nFormat/Info                 : Audio Video Interleave\nFile size                   : 953 MiB\nDuration                    : 1h 17mn\nOverall bit rate            : 1 721 Kbps\nWriting application         : VirtualDubMod 1.5.10.2 (build 2540/release)\nWriting library             : VirtualDubMod build 2540/release\n\nVideo\nID                          : 0\nFormat                      : MPEG-4 Visual\nFormat profile              : Advanced Simple@L5\nFormat settings, BVOP       : 2\nFormat settings, QPel       : No\nFormat settings, GMC        : No warppoints\nFormat settings, Matrix     : Default (H.263)\nMuxing mode                 : Packed bitstream\nCodec ID                    : XVID\nCodec ID/Hint               : XviD\nDuration                    : 1h 17mn\nBit rate                    : 1 583 Kbps\nWidth                       : 720 pixels\nHeight                      : 384 pixels\nDisplay aspect ratio        : 1.85:1\nFrame rate                  : 25.000 fps\nColor space                 : YUV\nChroma subsampling          : 4:2:0\nBit depth                   : 8 bits\nScan type                   : Progressive\nCompression mode            : Lossy\nBits/(Pixel*Frame)          : 0.229\nStream size                 : 877 MiB (92%)\nWriting library             : XviD 67\n\nAudio\nID                          : 1\nFormat                      : MPEG Audio\nFormat version              : Version 1\nFormat profile              : Layer 3\nMode                        : Joint stereo\nMode extension              : MS Stereo\nCodec ID                    : 55\nCodec ID/Hint               : MP3\nDuration                    : 1h 17mn\nBit rate mode               : Constant\nBit rate                    : 128 Kbps\nChannel(s)                  : 2 channels\nSampling rate               : 48.0 KHz\nCompression mode            : Lossy\nStream size                 : 70.9 MiB (7%)\nAlignment                   : Split accross interleaves\nInterleave, duration        : 40 ms (1.00 video frame)\nWriting library             : LAME3.99r\n\n\n\n\n\nE N C O D E R S . N O T E S . . .       \n\nSOURCE......: ViDEO...KOR\n............: AUDiO...ENG\nSAMPLE......: Yippers \nADDED NOTE..: video was really nice WEB-DL. Has Kor subs through out the whole thing. Audio was pretty gud also. \n\n\n\nS C R E E N . S H O T S . . .\n\n[img]http://i.imgur.com/EqnszQH.png[/img]\n[img]http://i.imgur.com/8aC2hsO.png[/img]\n[img]http://i.imgur.com/pIRVzMS.png[/img]\n[img]http://i.imgur.com/f0rdrZQ.png[/img]\n[img]http://i.imgur.com/QdA87tl.png[/img]\n[img]http://i.imgur.com/kxwgpwI.png[/img]\n\n\n\n\n\ngot any funny stories, jokes, nakid pix of ya sisters/gf's or just want to reach \n\nout to us giz us some treats send to... &lt;a class=&quot;__cf_email__&quot; href=&quot;/cdn-cgi/l/email-protection&quot; data-cfemail=&quot;99cfd8f0d7d9f1eceaf1f4f8f0f5b7f4fc&quot;&gt;[email&amp;#160;protected]&lt;/a&gt;&lt;script data-cfhash='f9e31' type=&quot;text/javascript&quot;&gt;\n/* &lt;![CDATA[ */!function(){try{var t=&quot;currentScript&quot;in document?document.currentScript:function(){for(var t=document.getElementsByTagName(&quot;script&quot;),e=t.length;e--;)if(t[e].getAttribute(&quot;data-cfhash&quot;))return t[e]}();if(t&amp;&amp;t.previousSibling){var e,r,n,i,c=t.previousSibling,a=c.getAttribute(&quot;data-cfemail&quot;);if(a){for(e=&quot;&quot;,r=parseInt(a.substr(0,2),16),n=2;a.length-n;n+=2)i=parseInt(a.substr(n,2),16)^r,e+=String.fromCharCode(i);e=document.createTextNode(e),c.parentNode.replaceChild(e,c)}t.parentNode.removeChild(t);}}catch(u){}}()/* ]]&gt; */&lt;/script&gt; ;) \n\n***DISCLAiMER*** as you can see there were no special friend that passed us some \n\nspecial vobs. what you see here is work put into a source. sum may like others may \n\njust hate...VAiN stands behind it's QUALiTY and don't claim to be professional \n\nHDTSCAMBDBRiPDVDRiPSCRHQ ENCODERS. just a cpl of fella's nipping at ya mums \n\nknickers..... \n\n\nGREETZ:\n\nHive-CM8 | Rx | REFiLL | JEDI | DREAMER n' LADY | 26k |Unevano | EsX | TOFFEE\nGH0ST | ViSiON | Sugarb | DeviAntsRUs | STARLETS | GUSH | A.C.A.B. | jamie111 | TED |\n\nAnd all the release grps that don't hide behind new names, or live in the past n \n\nglory of old has been that neva were release grps\n\nCheer's to our wives n girlfriends... may they neva meet :shifty","torrent":{"xt":"urn:btih:3954676c59da8832849722e982f35b5f42e49341","amp;dn":"The.Gallows.2015.HC.WEBRiP.XviD-VAiN","amp;tr":["udp%3A%2F%2Ftracker.openbittorrent.com%3A80","udp%3A%2F%2Fopen.demonii.com%3A1337","udp%3A%2F%2Ftracker.coppersurfer.tk%3A6969","udp%3A%2F%2Fexodus.desync.com%3A6969"],"infoHash":"3954676c59da8832849722e982f35b5f42e49341","infoHashBuffer":{"type":"Buffer","data":[57,84,103,108,89,218,136,50,132,151,34,233,130,243,91,95,66,228,147,65]},"announce":[],"urlList":[]}}